<?xml version="1.0" encoding="UTF-8"?><svg version="1.1" viewBox="0 0 24 24" xmlns="http://www.w3.org/2000/svg" xmlns:xlink="http://www.w3.org/1999/xlink"><path d="M23.5,6h-23c-0.276,0 -0.5,0.224 -0.5,0.5v12c0,0.276 0.224,0.5 0.5,0.5h23c0.276,0 0.5,-0.224 0.5,-0.5v-12c0,-0.276 -0.224,-0.5 -0.5,-0.5Zm-16,9c0.023,-0.001 0.703,-0.024 1.053,-0.724c0.124,-0.246 0.424,-0.347 0.671,-0.224c0.247,0.124 0.347,0.424 0.224,0.671c-0.632,1.262 -1.894,1.277 -1.948,1.277c-1.544,0 -2.5,-1.816 -2.5,-3.5c0,-1.684 0.956,-3.5 2.5,-3.5c0.054,0 1.316,0.015 1.947,1.276c0.123,0.247 0.023,0.547 -0.224,0.671c-0.248,0.124 -0.547,0.023 -0.671,-0.224c-0.357,-0.715 -1.045,-0.723 -1.052,-0.723c-0.884,0 -1.5,1.317 -1.5,2.5c0,1.183 0.616,2.5 1.5,2.5Zm4.74,1c-0.919,0 -1.683,-0.752 -1.739,-1.712c-0.017,-0.275 0.193,-0.512 0.47,-0.528c0.271,-0.026 0.512,0.194 0.528,0.47c0.025,0.431 0.352,0.77 0.741,0.77c0.408,0 0.74,-0.371 0.74,-0.826c0,-0.772 -0.381,-1.02 -1.055,-1.392c-0.635,-0.351 -1.426,-0.789 -1.426,-1.957c0.001,-1.007 0.782,-1.825 1.743,-1.825c0.917,0 1.681,0.751 1.737,1.711c0.017,0.275 -0.193,0.512 -0.47,0.528c-0.278,0.015 -0.513,-0.194 -0.528,-0.47c-0.025,-0.431 -0.35,-0.769 -0.739,-0.769c-0.409,0 -0.742,0.37 -0.742,0.825c0,0.554 0.295,0.742 0.91,1.082c0.662,0.366 1.57,0.868 1.57,2.267c0.001,1.007 -0.78,1.826 -1.74,1.826Zm4.52,0c-0.919,0 -1.683,-0.752 -1.739,-1.712c-0.017,-0.275 0.193,-0.512 0.47,-0.528c0.275,-0.026 0.512,0.194 0.528,0.47c0.025,0.431 0.351,0.77 0.741,0.77c0.408,0 0.74,-0.371 0.74,-0.826c0,-0.772 -0.381,-1.02 -1.055,-1.392c-0.635,-0.351 -1.426,-0.789 -1.426,-1.957c0,-1.007 0.782,-1.825 1.743,-1.825c0.917,0 1.681,0.751 1.737,1.711c0.017,0.275 -0.193,0.512 -0.47,0.528c-0.274,0.015 -0.512,-0.194 -0.528,-0.47c-0.025,-0.431 -0.351,-0.769 -0.739,-0.769c-0.409,0 -0.742,0.37 -0.742,0.825c0,0.554 0.295,0.742 0.91,1.082c0.662,0.366 1.57,0.868 1.57,2.267c0,1.007 -0.78,1.826 -1.74,1.826Z"></path><path fill="none" d="M0,0h24v24h-24Z"></path></svg>
