<?xml version="1.0" encoding="UTF-8"?><svg version="1.1" viewBox="0 0 24 24" xmlns="http://www.w3.org/2000/svg" xmlns:xlink="http://www.w3.org/1999/xlink"><!--Generated by IJSVG (https://github.com/iconjar/IJSVG)--><path d="M23.5,0h-23c-0.276,0 -0.5,0.224 -0.5,0.5v23c0,0.275 0.224,0.5 0.5,0.5h23c0.275,0 0.5,-0.225 0.5,-0.5v-23c0,-0.276 -0.225,-0.5 -0.5,-0.5Zm-5.146,13.854l-6,6c-0.193,0.193 -0.509,0.197 -0.707,0l-6,-6c-0.316,-0.316 -0.091,-0.854 0.353,-0.854h3v-2.5c0,-0.276 0.224,-0.5 0.5,-0.5c0.275,0 0.5,0.224 0.5,0.5v3c0,0.275 -0.225,0.5 -0.5,0.5h-2.293l4.793,4.793l4.793,-4.793h-2.293c-0.276,0 -0.5,-0.225 -0.5,-0.5v-3c0,-0.276 0.224,-0.5 0.5,-0.5c0.275,0 0.5,0.224 0.5,0.5v2.5h3c0.441,0 0.667,0.537 0.354,0.854Zm-8.854,-7.854c0.275,0 0.5,0.224 0.5,0.5v2c0,0.275 -0.225,0.5 -0.5,0.5c-0.276,0 -0.5,-0.225 -0.5,-0.5v-2c0,-0.276 0.224,-0.5 0.5,-0.5Zm-0.5,-1.5v-2c0,-0.276 0.224,-0.5 0.5,-0.5c0.275,0 0.5,0.224 0.5,0.5v2c0,0.275 -0.225,0.5 -0.5,0.5c-0.276,0 -0.5,-0.225 -0.5,-0.5Zm5.5,1.5c0.275,0 0.5,0.224 0.5,0.5v2c0,0.275 -0.225,0.5 -0.5,0.5c-0.276,0 -0.5,-0.225 -0.5,-0.5v-2c0,-0.276 0.224,-0.5 0.5,-0.5Zm-0.5,-1.5v-2c0,-0.276 0.224,-0.5 0.5,-0.5c0.275,0 0.5,0.224 0.5,0.5v2c0,0.275 -0.225,0.5 -0.5,0.5c-0.276,0 -0.5,-0.225 -0.5,-0.5Z" fill="#000"></path><path fill="none" d="M0,0h24v24h-24Z"></path></svg>