<?xml version="1.0" encoding="UTF-8"?><svg version="1.1" viewBox="0 0 24 24" xmlns="http://www.w3.org/2000/svg" xmlns:xlink="http://www.w3.org/1999/xlink"><!--Generated by IJSVG (https://github.com/iconjar/IJSVG)--><g stroke-linecap="round" stroke-width="1" stroke="#000" fill="none" stroke-linejoin="round"><path d="M0.5,6.5h23v12h-23Z"></path><path d="M9,10.5c-0.5,-1 -1.5,-1 -1.5,-1c-1.201,0 -2,1.535 -2,3c0,1.464 0.799,3 2,3c0,0 1,0 1.5,-1"></path><path d="M11,14.259c0.041,0.692 0.58,1.241 1.24,1.241c0.686,0 1.24,-0.594 1.24,-1.326c0,-2.124 -2.48,-1.531 -2.48,-3.349c0,-0.731 0.557,-1.325 1.242,-1.325c0.658,0 1.197,0.549 1.238,1.24"></path><path d="M15.52,14.259c0.041,0.692 0.58,1.241 1.24,1.241c0.686,0 1.24,-0.594 1.24,-1.326c0,-2.124 -2.48,-1.531 -2.48,-3.349c0,-0.731 0.557,-1.325 1.242,-1.325c0.658,0 1.197,0.549 1.238,1.24"></path></g><path fill="none" d="M0,0h24v24h-24Z"></path></svg>