<?xml version="1.0" encoding="UTF-8"?>
<svg version="1.1" viewBox="0 0 16 16" xmlns="http://www.w3.org/2000/svg" xmlns:xlink="http://www.w3.org/1999/xlink">

    <path d="M13.5,3h-11l-2.18557e-08,4.44089e-16c-0.276142,1.20706e-08 -0.5,0.223858 -0.5,0.5c0,0 0,0 0,0v7.5h12v-7.5v0c0,-0.276142 -0.223858,-0.5 -0.5,-0.5Zm-11,-1l-6.55671e-08,1.77636e-15c-0.828427,3.62117e-08 -1.5,0.671573 -1.5,1.5c0,0 0,4.44089e-16 0,4.44089e-16v8.5h14v-8.5h-1.77636e-15c0,-0.828427 -0.671573,-1.5 -1.5,-1.5c0,0 -1.77636e-15,0 -1.77636e-15,0h-11Z" fill="currentColor" fill-rule="evenodd"></path>
    <path fill="currentColor" d="M0,12h16v0.5v0c0,0.828427 -0.671573,1.5 -1.5,1.5h-13l-6.55671e-08,-1.77636e-15c-0.828427,-3.62117e-08 -1.5,-0.671573 -1.5,-1.5c0,0 0,-1.77636e-15 0,-1.77636e-15v-0.5Z"></path>
</svg>
