<?xml version="1.0" encoding="UTF-8"?><svg version="1.1" viewBox="0 0 16 16" xmlns="http://www.w3.org/2000/svg" xmlns:xlink="http://www.w3.org/1999/xlink"><!--Generated by IJSVG (https://github.com/iconjar/IJSVG)--><path d="M2,0l-8.74228e-08,1.77636e-15c-1.10457,4.82823e-08 -2,0.895431 -2,2c0,0 0,0 0,0v12l2.30926e-14,-3.01992e-07c-1.66785e-07,1.10457 0.89543,2 2,2h12l-8.74228e-08,-3.55271e-15c1.10457,4.82823e-08 2,-0.89543 2,-2v-12v0c0,-1.10457 -0.895431,-2 -2,-2h-12Zm6.5,4v0c0,-0.276142 -0.223858,-0.5 -0.5,-0.5c-0.276142,0 -0.5,0.223858 -0.5,0.5v3.5h-3.5l-2.18557e-08,8.88178e-16c-0.276142,1.20706e-08 -0.5,0.223858 -0.5,0.5c1.20706e-08,0.276142 0.223858,0.5 0.5,0.5h3.5v3.5l5.32907e-15,5.44245e-08c4.16963e-08,0.276142 0.223858,0.5 0.5,0.5c0.276142,-4.16963e-08 0.5,-0.223858 0.5,-0.5v-3.5h3.5h-2.18557e-08c0.276142,1.20706e-08 0.5,-0.223858 0.5,-0.5c1.20706e-08,-0.276142 -0.223858,-0.5 -0.5,-0.5h-3.5v-3.5Z" fill="#000" fill-rule="evenodd"></path></svg>