<svg version="1.1" id="Layer_1" xmlns="http://www.w3.org/2000/svg" xmlns:xlink="http://www.w3.org/1999/xlink" x="0px" y="0px" viewBox="0 0 392 56.2" style="enable-background:new 0 0 392 56.2;" xml:space="preserve"><title>Salskea Oy</title>
<g>
	<path d="M367.5,11.5l4.8,22.2h-9.7L367.5,11.5z M392,54.8L376.2,1.4h-17.1l-15.8,53.4H358l2.4-10.9h14.1l2.4,10.9H392z M292.6,1.4
		v53.4h33.7V44.7h-19.4V32.6h15.9v-9.8h-15.9V11.4H325l1.5-10.1H292.6z M260,1.4l-15.8,25l15.8,28.4h16.3l-17.4-29.6l16.1-23.8H260z
		 M229.5,54.8h14.2V1.4h-14.2V54.8z M192.2,0c-3.8,0-7.2,0.7-10.3,2c-3,1.3-5.4,3.2-7.1,5.6c-1.7,2.4-2.6,5.2-2.6,8.4
		c0,4,1.2,7.4,3.7,10.1c2.5,2.7,6.7,4.9,12.8,6.8c2.5,0.8,4.4,1.5,5.7,2.1c1.3,0.6,2.2,1.4,2.7,2.2s0.8,1.8,0.8,3
		c0,1.7-0.7,3.1-2,4.2c-1.3,1-3.2,1.6-5.6,1.6c-4.6,0-9-1.7-13.3-5.2l-7,7.8c5.4,5.2,12.3,7.8,20.8,7.8c4.5,0,8.3-0.7,11.6-2.2
		c3.3-1.4,5.8-3.4,7.6-6c1.7-2.6,2.6-5.6,2.6-9c0-4.7-1.3-8.3-3.8-10.9c-2.5-2.6-6.5-4.8-12-6.6c-2.9-0.9-5-1.7-6.3-2.3
		c-1.3-0.6-2.3-1.3-2.8-1.9c-0.6-0.7-0.8-1.5-0.8-2.5c0-1.4,0.6-2.5,1.7-3.3c1.1-0.8,2.7-1.2,4.8-1.2c4,0,7.9,1.5,11.6,4.4l6.4-7.5
		c-2.5-2.4-5.2-4.1-8.3-5.3C199.8,0.6,196.2,0,192.2,0 M122.7,1.4v53.4h33.2l1.5-11.1H137V1.4H122.7z M80.5,11.5l4.8,22.2h-9.7
		L80.5,11.5z M105,54.8L89.2,1.4H72.1L56.3,54.8H71l2.4-10.9h14.1L90,54.8H105z M22.2,0C18.4,0,15,0.7,11.9,2
		c-3,1.3-5.4,3.2-7.1,5.6c-1.7,2.4-2.6,5.2-2.6,8.4c0,4,1.2,7.4,3.7,10.1c2.5,2.7,6.7,4.9,12.8,6.8c2.5,0.8,4.4,1.5,5.7,2.1
		c1.3,0.6,2.2,1.4,2.7,2.2c0.5,0.8,0.8,1.8,0.8,3c0,1.7-0.7,3.1-2,4.2s-3.2,1.6-5.6,1.6c-4.6,0-9-1.7-13.3-5.2l-7,7.8
		c5.4,5.2,12.3,7.8,20.8,7.8c4.5,0,8.3-0.7,11.6-2.2c3.3-1.4,5.8-3.4,7.6-6c1.7-2.6,2.6-5.6,2.6-9c0-4.7-1.3-8.3-3.8-10.9
		c-2.5-2.6-6.5-4.8-12-6.6c-2.9-0.9-5-1.7-6.3-2.3c-1.3-0.6-2.3-1.3-2.8-1.9c-0.6-0.7-0.8-1.5-0.8-2.5c0-1.4,0.6-2.5,1.7-3.3
		c1.1-0.8,2.7-1.2,4.8-1.2c4,0,7.9,1.5,11.6,4.4l6.4-7.5c-2.5-2.4-5.2-4.1-8.3-5.3C29.8,0.6,26.3,0,22.2,0"></path>
</g>
</svg>